<svg width="193" height="27" viewBox="0 0 193 27" fill="none" xmlns="http://www.w3.org/2000/svg">
<path d="M12.0778 12.8362V13.5931H0.738352V25.9746H13.7409V26.7315H0V0.227295H13.7409V0.984214H0.738352V12.8362H12.0778Z" fill="white"/>
<path d="M31.6194 0.227295H32.8012L16.9184 13.5931L32.8767 26.734H31.6218L16.4749 14.2001V26.734H15.7366V0.227295H16.4749V12.9885L31.6194 0.227295Z" fill="white"/>
<path d="M36.1981 0.227295V25.977H49.2006V26.734H35.4597V0.227295H36.1981Z" fill="white"/>
<path d="M51.8238 0.227295V26.734H51.0854V0.227295H51.8238Z" fill="white"/>
<path d="M55.2584 26.734H54.52V0.227295H65.1943C68.2609 0.227295 70.66 2.91641 70.66 5.83043V9.46509C70.7048 12.5145 68.3317 15.0223 65.357 15.0682C65.3028 15.0682 65.2485 15.0682 65.1943 15.0682H55.2584V26.7316V26.734ZM65.1943 14.3137C67.7585 14.3621 69.8768 12.2679 69.9216 9.63921C69.9216 9.58117 69.9216 9.52555 69.9216 9.46751V5.83285C69.891 3.17033 67.7915 1.01807 65.1943 0.986632H55.2584V14.3137H65.1943Z" fill="white"/>
<path d="M72.7666 24.8792C74.5759 25.7885 76.2767 26.2431 80.3766 26.2431C83.3512 26.289 85.7974 23.8563 85.8423 20.8068C85.8423 20.7512 85.8423 20.6956 85.8423 20.64V19.6557C85.8423 17.4599 84.5873 15.7938 82.7402 14.8095L75.871 11.1362C74.0971 10.1882 72.769 8.48574 72.769 6.28995V5.41937C72.769 2.50293 75.1704 0.0411337 78.237 0.0411337C78.9022 0.00244141 79.5297 0.00244141 80.0841 0.00244141C82.7803 0.00244141 84.2217 0.38211 85.663 1.25269V2.16196C84.1863 1.214 82.8558 0.761779 80.0841 0.761779C79.5297 0.761779 78.9022 0.761779 78.237 0.800471C75.5785 0.800471 73.5097 2.92129 73.5097 5.41937V6.28995C73.5097 8.14476 74.7292 9.66102 76.206 10.4542L83.0752 14.1276C85.144 15.2255 86.5853 17.119 86.5853 19.6557V20.64C86.6302 24.1078 83.9221 26.9565 80.5394 27.0024C80.4851 27.0024 80.4332 27.0024 80.3789 27.0024C76.3168 27.0024 74.5429 26.5478 72.769 25.7159V24.884L72.7666 24.8792Z" fill="white"/>
<path d="M99.2505 0.227295H108.042C112.548 0.227295 116.096 4.12797 116.096 8.51955V18.478C116.138 22.9953 112.6 26.6904 108.193 26.734C108.144 26.734 108.094 26.734 108.042 26.734H99.2505V0.227295ZM99.9888 25.977H108.042C112.038 26.0206 115.313 22.7341 115.355 18.6376C115.355 18.5844 115.355 18.5336 115.355 18.4804V8.51955C115.355 4.54391 112.142 0.984214 108.042 0.984214H99.9888V25.977Z" fill="white"/>
<path d="M119.53 0.227295V26.734H118.792V0.227295H119.53Z" fill="white"/>
<path d="M131.202 13.5931V12.8362H138.072V25.5224C136.373 26.659 135.005 27 131.422 27H130.24C125.031 26.925 122.187 23.3653 122.187 18.744V8.29225C122.189 3.67335 125.034 0 130.242 0C134.415 0 135.968 0.227318 137.666 1.21155V2.11841C135.93 0.981818 134.564 0.754501 130.242 0.754501C125.515 0.754501 122.93 4.08688 122.93 8.28983V18.7416C122.93 22.9446 125.515 26.1633 130.242 26.2382H131.424C134.526 26.2382 135.93 25.936 137.333 25.1017V13.5931H131.202Z" fill="white"/>
<path d="M141.396 0.227295V26.734H140.657V0.227295H141.396Z" fill="white"/>
<path d="M161.159 0.227295V0.984214H152.884V26.6953H152.145V0.984214H143.613V0.227295H161.159Z" fill="white"/>
<path d="M166.736 0.227295H167.512L176.747 26.734H175.971L172.904 17.9871H161.305L158.276 26.734H157.5L166.736 0.227295ZM161.565 17.2302H172.647L167.106 1.36388L161.565 17.2302Z" fill="white"/>
<path d="M179.997 0.227295V25.977H193V26.734H179.259V0.227295H179.997Z" fill="white"/>
</svg>
